<?xml version="1.0" encoding="iso-8859-1"?>
<!-- Generator: Adobe Illustrator 18.0.0, SVG Export Plug-In . SVG Version: 6.00 Build 0)  -->
<!DOCTYPE svg PUBLIC "-//W3C//DTD SVG 1.1//EN" "http://www.w3.org/Graphics/SVG/1.1/DTD/svg11.dtd">
<svg version="1.1" id="Capa_1" xmlns="http://www.w3.org/2000/svg" xmlns:xlink="http://www.w3.org/1999/xlink" x="0px" y="0px"
	 viewBox="0 0 475.058 475.058" style="enable-background:new 0 0 475.058 475.058;" xml:space="preserve">
<g>
	<path d="M400.044,97.698c0-26.874-17.448-51.827-49.131-70.262C320.507,9.744,280.24,0,237.529,0
		c-42.711,0-82.978,9.744-113.384,27.436C92.462,45.871,75.014,70.824,75.014,97.698c0,13.89,4.672,27.263,13.551,39.492v248.055
		c0,24.768,16.039,47.741,45.162,64.687c27.847,16.203,64.711,25.126,103.802,25.126s75.956-8.923,103.802-25.126
		c29.124-16.946,45.162-39.918,45.162-64.687V137.19C395.371,124.961,400.044,111.588,400.044,97.698z M131.689,40.401
		C159.84,24.021,197.427,15,237.529,15c40.101,0,77.689,9.021,105.84,25.401c26.875,15.637,41.675,35.986,41.675,57.297
		s-14.8,41.66-41.675,57.297c-28.15,16.38-65.739,25.401-105.84,25.401c-40.102,0-77.689-9.021-105.84-25.401
		c-26.875-15.637-41.675-35.985-41.675-57.297S104.814,56.038,131.689,40.401z M333.787,436.966
		c-25.591,14.891-59.776,23.091-96.258,23.091s-70.667-8.201-96.259-23.091c-24.315-14.148-37.706-32.517-37.706-51.722V153.379
		c5.985,5.202,12.856,10.086,20.58,14.581c30.406,17.692,70.673,27.436,113.384,27.436c42.71,0,82.978-9.744,113.384-27.436
		c7.724-4.494,14.595-9.378,20.58-14.581v231.866C371.493,404.45,358.102,422.818,333.787,436.966z"/>
	<path d="M145.759,194.116l-8.098-4.676c-3.741-2.16-8.39-2.159-12.131,0c-3.741,2.16-6.065,6.186-6.064,10.505l0.017,188.068
		c0.001,7.716,4.152,14.906,10.835,18.765l8.082,4.666c1.871,1.08,3.968,1.62,6.065,1.62c2.098,0,4.195-0.54,6.065-1.62
		c3.741-2.16,6.065-6.185,6.065-10.505V212.883C156.594,205.166,152.443,197.975,145.759,194.116z M141.594,395.969l-3.776-2.181
		c-2.058-1.188-3.336-3.401-3.336-5.776l-0.016-183.096l3.793,2.19c2.058,1.188,3.335,3.401,3.335,5.777V395.969z"/>
	<path d="M349.53,189.44c-3.741-2.161-8.389-2.161-12.13,0l-8.098,4.675c-6.684,3.859-10.836,11.05-10.836,18.768V400.94
		c0,4.32,2.324,8.345,6.065,10.505c1.871,1.08,3.968,1.62,6.065,1.62c2.097,0,4.194-0.54,6.064-1.62l8.083-4.666
		c6.682-3.858,10.834-11.049,10.834-18.765l0.017-188.068C355.595,195.626,353.271,191.6,349.53,189.44z M340.578,388.013
		c0,2.375-1.278,4.588-3.335,5.776l-3.777,2.181V212.883c0-2.375,1.278-4.589,3.335-5.777l3.793-2.19L340.578,388.013z"/>
	<path d="M237.538,209.967c-16.326,0-29.61,13.283-29.612,29.609l-0.015,160.027c-0.002,16.326,13.279,29.611,29.62,29.615
		c0.002,0,0.005,0,0.007,0c7.908,0,15.343-3.079,20.937-8.67c5.595-5.593,8.676-13.03,8.676-20.941V239.58
		C267.15,223.251,253.866,209.967,237.538,209.967z M252.15,399.607c0,3.904-1.521,7.573-4.281,10.333
		c-2.76,2.759-6.428,4.278-10.347,4.278c-0.001,0-0.002,0-0.003,0c-8.056-0.002-14.609-6.558-14.608-14.613c0,0,0,0,0,0
		l0.015-160.027c0.001-8.057,6.556-14.611,14.612-14.611c8.057,0,14.612,6.555,14.612,14.612V399.607z"/>
	<path d="M182.251,122.819c4.142,0,7.5-3.358,7.5-7.5v-16.85c0-6.925,3.725-13.378,9.722-16.841l79.993-46.2
		c1.758-1.016,3.309-0.339,3.894,0c0.585,0.338,1.947,1.343,1.947,3.372v12.69c0,4.142,3.358,7.5,7.5,7.5s7.5-3.358,7.5-7.5v-12.69
		c0-6.831-3.532-12.948-9.448-16.363c-5.917-3.415-12.979-3.414-18.895,0.002l-79.993,46.2c-10.622,6.135-17.22,17.565-17.22,29.831
		v16.85C174.751,119.461,178.109,122.819,182.251,122.819z"/>
</g>
<g>
</g>
<g>
</g>
<g>
</g>
<g>
</g>
<g>
</g>
<g>
</g>
<g>
</g>
<g>
</g>
<g>
</g>
<g>
</g>
<g>
</g>
<g>
</g>
<g>
</g>
<g>
</g>
<g>
</g>
</svg>
